<svg xmlns="http://www.w3.org/2000/svg" viewBox="0 0 24 24">
<mask id="a" width="24" height="24" x="0" y="0" maskUnits="userSpaceOnUse" style="mask-type:alpha">
<path fill="currentcolor" d="M0 0h24v24H0z"/>
</mask><g mask="url(#a)">
<path fill="currentcolor" d="M17.036 13.647c.198-.301.21-.607.035-.917-.175-.309-.444-.464-.808-.464h-3.511V3.958a.726.726 0 0 0-.216-.534.726.726 0 0 0-.534-.216.725.725 0 0 0-.535.216.727.727 0 0 0-.215.534v8.308H7.74c-.364 0-.633.155-.807.464-.175.31-.163.616.034.917l4.271 6.717c.18.285.434.427.763.427a.857.857 0 0 0 .764-.427l4.271-6.717Zm-1.857.12-3.177 4.995-3.177-4.996h6.354Z"/></g></svg>