<svg fill="none" xmlns="http://www.w3.org/2000/svg" viewBox="0 0 24 24">
<mask id="a" width="24" height="24" x="0" y="0" style="mask-type:alpha" maskUnits="userSpaceOnUse">
<path fill="currentcolor" d="M0 0h24v24H0z"/>
</mask>
<g mask="url(#a)">
<path fill="currentcolor" d="M9.058 17.5c-.505 0-.933-.175-1.283-.525a1.745 1.745 0 0 1-.525-1.283V4.308c0-.505.175-.933.525-1.283.35-.35.778-.525 1.283-.525h8.384c.505 0 .933.175 1.283.525.35.35.525.778.525 1.283v11.384c0 .505-.175.933-.525 1.283-.35.35-.778.525-1.283.525H9.058Zm0-1.5h8.384a.294.294 0 0 0 .212-.096.294.294 0 0 0 .096-.212V4.308a.294.294 0 0 0-.096-.212.294.294 0 0 0-.212-.096H9.058a.294.294 0 0 0-.212.096.294.294 0 0 0-.096.212v11.384c0 .077.032.148.096.212a.294.294 0 0 0 .212.096Zm-3.5 5c-.505 0-.933-.175-1.283-.525a1.745 1.745 0 0 1-.525-1.283V7.058c0-.213.072-.391.216-.535a.726.726 0 0 1 .534-.215c.213 0 .391.072.535.215a.727.727 0 0 1 .215.535v12.134c0 .077.032.148.096.212a.294.294 0 0 0 .212.096h9.134c.213 0 .391.072.535.215a.726.726 0 0 1 .215.535.726.726 0 0 1-.215.535.726.726 0 0 1-.535.215H5.558Z" />
</g></svg>