<svg width="24" height="24" viewBox="0 0 24 24" fill="none" xmlns="http://www.w3.org/2000/svg">
<mask id="mask0_2226_8547" style="mask-type:alpha" maskUnits="userSpaceOnUse" x="0" y="0" width="24" height="24">
<path d="M0 0H24V24H0V0Z" fill="#1C1B1F"/>
</mask>
<g mask="url(#mask0_2226_8547)">
<path d="M6.42935 3C4.54347 3 3 4.54344 3 6.42935V17.0712C3 18.9571 4.54344 20.5 6.42935 20.5H17.0712C18.9571 20.5 20.5 18.9571 20.5 17.0712V6.42935C20.5 4.54347 18.9571 3 17.0712 3H6.42935ZM7.29188 5.88785C8.19611 5.88785 8.75308 6.48147 8.77028 7.26177C8.77028 8.02484 8.19608 8.63514 7.27439 8.63514H7.25742C6.3704 8.63514 5.79708 8.02487 5.79708 7.26177C5.79708 6.48148 6.38775 5.88785 7.29186 5.88785H7.29188ZM15.0842 9.53487C16.8232 9.53487 18.1268 10.6715 18.1268 13.1141V17.6739H15.484V13.4198C15.484 12.3508 15.1015 11.6214 14.1451 11.6214C13.415 11.6214 12.9797 12.113 12.7887 12.5879C12.7189 12.7578 12.7017 12.9951 12.7017 13.2327V17.6739H10.0589C10.0589 17.6739 10.0936 10.4675 10.0589 9.72136H12.7023V10.8475C13.0535 10.3057 13.6817 9.53485 15.0842 9.53485V9.53487ZM5.95296 9.72194H8.5958V17.674H5.95296V9.72194Z" fill="#1C1B1F"/>
</g>
</svg>
