<svg xmlns="http://www.w3.org/2000/svg" fill="none" viewBox="0 0 40 40">
<path fill="#000" d="M19.997 0C9.692 0 1.194 7.686 0 17.6h.812C2 8.129 10.137.8 19.997.8c9.849 0 17.982 7.344 19.185 16.8 0 .222.182.403.405.403.223 0 .425-.18.407-.403C38.77 7.717 30.28 0 19.997 0ZM0 22.4C1.194 32.314 9.692 40 19.997 40S38.8 32.314 39.994 22.4h-.812c-1.19 9.471-9.325 16.8-19.185 16.8-9.858 0-17.993-7.326-19.185-16.795v-.003A.403.403 0 0 0 .408 22a.403.403 0 0 0-.404.4H0Z"/>
<path fill="#000" d="M15.627 14.405c-1.482 2.241-2.892 5.09-3.736 7.032a.404.404 0 0 1-.756-.27c.268-.918.586-2.284.678-3.409.047-.569.032-1.036-.053-1.345a.637.637 0 0 0-.13-.273c-.028-.028-.054-.042-.109-.042-.049 0-.155.025-.33.139a3.576 3.576 0 0 0-.58.5c-.435.448-.921 1.079-1.414 1.796-.983 1.432-1.958 3.157-2.554 4.308a.404.404 0 0 1-.505.19.4.4 0 0 1-.241-.48l1.933-6.96a.403.403 0 0 1 .777.213l-1.054 3.793c.316-.515.646-1.03.979-1.514.503-.733 1.019-1.407 1.5-1.902.24-.247.482-.46.718-.614.23-.15.495-.269.771-.269.272 0 .507.102.686.285.168.172.268.395.33.62.123.447.128 1.027.08 1.62l-.025.253c.705-1.38 1.52-2.838 2.361-4.11.757-1.144 1.55-2.162 2.318-2.838.74-.652 1.597-1.107 2.416-.781.484.192.715.674.822 1.18.11.522.117 1.189.054 1.945-.125 1.517-.54 3.5-1.102 5.64-1.123 4.284-2.85 9.267-4.099 12.547a.404.404 0 0 1-.519.233.4.4 0 0 1-.234-.515c1.242-3.266 2.959-8.22 4.073-12.467.557-2.126.959-4.057 1.079-5.504.06-.726.046-1.304-.04-1.714-.09-.425-.233-.563-.333-.603-.35-.138-.866.006-1.583.637-.688.607-1.435 1.555-2.178 2.679ZM31.354 11.722c1.14.329 2.099 1.012 2.501 2.165a.404.404 0 0 1-.761.262c-.292-.837-.992-1.379-1.964-1.658-.978-.282-2.194-.283-3.41-.053-1.212.23-2.39.686-3.287 1.285-.906.605-1.468 1.314-1.577 2.034-.058.383-.015.655.077.858.093.203.25.373.486.526.495.32 1.237.508 2.149.734l.041.01c1.726.428 3.963.983 4.852 3.233.558 1.164.818 3.727-1.046 5.974a13.653 13.653 0 0 1-3.286 2.816c-.576.345-1.153.61-1.662.72-.493.109-1.046.097-1.417-.297-.39-.413-.31-1.023-.13-1.523.19-.536.557-1.134 1.018-1.705.917-1.135 2.298-2.271 3.674-2.632a.4.4 0 1 1 .206.774c-1.143.3-2.39 1.293-3.251 2.358-.427.53-.737 1.049-.889 1.473-.164.46-.093.652-.04.709.072.076.25.152.655.063.389-.085.88-.302 1.421-.625a12.854 12.854 0 0 0 3.08-2.64c1.647-1.987 1.378-4.22.934-5.13a.385.385 0 0 1-.013-.03c-.719-1.84-2.53-2.322-4.343-2.772l-.07-.017c-.84-.209-1.706-.423-2.324-.824-.33-.213-.608-.491-.779-.866-.17-.374-.215-.808-.14-1.305.158-1.04.933-1.918 1.925-2.58 1.001-.668 2.284-1.16 3.585-1.406 1.3-.247 2.65-.257 3.785.07ZM.847 20c0 .22-.18.4-.403.4a.401.401 0 0 1-.403-.4c0-.22.18-.4.403-.4.223 0 .403.18.403.4ZM39.597 20.4c.223 0 .403-.18.403-.4 0-.22-.18-.4-.403-.4a.401.401 0 0 0-.403.4c0 .22.18.4.403.4Z"/>
</svg>