<svg width="1020" height="1020" viewBox="0 0 1020 1020" fill="none" xmlns="http://www.w3.org/2000/svg">
<path d="M220 419.45L172 593.45C201.833 535.45 269.6 419.45 302 419.45C334.4 419.45 315.5 512.45 302 558.95C344.167 461.283 443 271.75 501 294.95C559 318.15 449.833 651.283 388 814.95M847 377.45C812.5 277.95 586.747 331.45 573.5 419.45C560.253 507.45 723 455.95 763 558.95C775.5 584.783 782.196 644.891 738.5 697.95C696.5 748.95 617.5 801.95 595.5 778.45C573.5 754.95 641.5 664.95 704 648.45M1010 510C1010 786.142 786.142 1010 510 1010C233.858 1010 10 786.142 10 510C10 233.858 233.858 10 510 10C786.142 10 1010 233.858 1010 510Z" stroke="black" stroke-width="20" stroke-linecap="round" stroke-linejoin="round"/>
</svg>
