<svg xmlns="http://www.w3.org/2000/svg" viewBox="0 0 24 24">
<mask id="a" width="24" height="24" x="0" y="0" maskUnits="userSpaceOnUse" style="mask-type:alpha">
<path fill="currentcolor" d="M0 0h24v24H0z"/>
</mask><g mask="url(#a)">
<path fill="currentcolor" d="M12.977 17.034c-.301.198-.607.21-.916.035-.31-.174-.465-.444-.465-.808V12.75H3.29a.726.726 0 0 1-.535-.216A.726.726 0 0 1 2.54 12c0-.213.071-.391.215-.535a.726.726 0 0 1 .535-.215h8.307V7.738c0-.364.155-.633.465-.807.31-.175.615-.163.916.034l6.717 4.271c.285.18.427.434.427.763a.857.857 0 0 1-.427.764l-6.717 4.271Zm.12-1.857L18.091 12l-4.996-3.177v6.354Z"/>
</g>
</svg>