<svg xmlns="http://www.w3.org/2000/svg" viewBox="0 0 24 24">
<mask id="a" width="24" height="24" x="0" y="0" maskUnits="userSpaceOnUse" style="mask-type:alpha">
<path fill="currentcolor" d="M0 0h24v24H0z"/>
</mask><g mask="url(#a)">
<path fill="currentcolor" d="m11.023 17.034-6.717-4.27A.853.853 0 0 1 3.879 12c0-.329.142-.584.427-.765l6.717-4.27c.301-.198.607-.21.916-.035.31.174.465.443.465.807v3.512h8.307c.213 0 .391.072.535.216a.726.726 0 0 1 .215.534c0 .213-.071.39-.215.534a.726.726 0 0 1-.535.216h-8.307v3.511c0 .364-.155.634-.465.808-.31.174-.615.163-.916-.035Zm-.12-1.857V8.823L5.909 12l4.996 3.177Z"/></g></svg>