<svg xmlns="http://www.w3.org/2000/svg" viewBox="0 0 24 24">
<mask id="a" width="24" height="24" x="0" y="0" maskUnits="userSpaceOnUse" style="mask-type:alpha">
<path fill="currentcolor" d="M0 0h24v24H0z"/>
</mask><g mask="url(#a)">
<path fill="currentcolor" d="M16.364 10.352c.198.302.21.607.035.917-.174.31-.444.464-.808.464H12.08v8.308c0 .212-.072.39-.216.535a.726.726 0 0 1-.534.215.725.725 0 0 1-.534-.215.726.726 0 0 1-.216-.535v-8.308H7.068c-.364 0-.633-.155-.807-.464-.175-.31-.163-.615.034-.917l4.271-6.717a.852.852 0 0 1 .763-.426c.329 0 .584.142.764.426l4.271 6.717Zm-1.857-.119L11.33 5.237l-3.177 4.996h6.354Z"/></g></svg>