<svg xmlns="http://www.w3.org/2000/svg" viewBox="0 0 24 24">
<mask id="a" width="24" height="24" x="0" y="0" maskUnits="userSpaceOnUse" style="mask-type:alpha">
<path fill="currentcolor" d="M0 0h24v24H0z"/></mask><g mask="url(#a)">
<path fill="#DE93A0" fill-rule="evenodd" d="M13.706 1.466c3.243.41 6.192 2.242 7.818 5.079 1.555 2.712 1.154 5.935.202 8.913-.998 3.12-2.383 6.48-5.473 7.568-3.097 1.091-6.34-.58-9.034-2.458-2.505-1.747-4.387-4.21-4.857-7.227-.497-3.197.112-6.582 2.346-8.92 2.294-2.402 5.703-3.371 8.998-2.955Z" opacity=".4"/>
<path fill="currentcolor" d="M19.44 20.5c-1.884 0-3.778-.438-5.68-1.314-1.901-.877-3.649-2.113-5.242-3.709s-2.827-3.344-3.704-5.242C3.938 8.335 3.5 6.445 3.5 4.56A1.032 1.032 0 0 1 4.55 3.5h3.261c.253 0 .476.082.669.247.193.165.316.368.368.61L9.421 7.3c.04.273.032.508-.025.704-.056.196-.158.36-.304.494l-2.31 2.248c.372.68.797 1.325 1.275 1.932.477.607.994 1.187 1.55 1.74a17.229 17.229 0 0 0 3.753 2.842l2.244-2.264c.156-.163.346-.277.568-.342.223-.066.454-.082.694-.048l2.776.565c.253.067.459.196.619.387.16.19.239.407.239.65v3.242a1.032 1.032 0 0 1-1.06 1.05ZM6.073 9.327l1.785-1.708a.179.179 0 0 0 .062-.106.234.234 0 0 0-.005-.125l-.434-2.234a.206.206 0 0 0-.067-.115A.194.194 0 0 0 7.288 5H5.15a.13.13 0 0 0-.135.135 12.767 12.767 0 0 0 1.058 4.192Zm8.7 8.642c.663.31 1.354.546 2.074.709.72.163 1.393.26 2.018.291a.13.13 0 0 0 .135-.135v-2.103a.193.193 0 0 0-.038-.125.206.206 0 0 0-.116-.068l-2.1-.427a.158.158 0 0 0-.1-.004.247.247 0 0 0-.092.062l-1.781 1.8Z"/></g></svg>