<svg fill="none" xmlns="http://www.w3.org/2000/svg" viewBox="0 0 24 24"><mask id="a" style="mask-type:alpha" maskUnits="userSpaceOnUse" x="0" y="0" width="24" height="24"><path fill="#D9D9D9" d="M0 0h24v24H0z"/></mask><g mask="url(#a)"><path opacity=".4" fill-rule="evenodd" clip-rule="evenodd" d="M12.32.924c2.5-.008 5.305-.345 7.205 1.28 1.872 1.6 1.609 4.466 2.285 6.833.645 2.255 2.2 4.419 1.578 6.68-.63 2.291-2.803 3.743-4.797 5.035-1.9 1.231-4.007 2.14-6.27 2.138-2.263-.003-4.517-.711-6.262-2.15-1.682-1.388-2.34-3.534-3.104-5.576-.804-2.147-1.823-4.293-1.439-6.554.419-2.467 1.592-4.91 3.631-6.362C7.178.803 9.827.931 12.32.924Z" fill="#DE93A0"/><path d="M14.406 20.5a2.527 2.527 0 0 1-1.853-.762 2.516 2.516 0 0 1-.764-1.851c0-.726.254-1.344.762-1.853a2.516 2.516 0 0 1 1.85-.765c.726 0 1.344.254 1.854.763.51.508.764 1.124.764 1.85s-.254 1.344-.762 1.853a2.516 2.516 0 0 1-1.851.765Zm-.002-1.5c.309 0 .572-.109.79-.326.217-.217.325-.48.325-.79 0-.308-.108-.571-.326-.789a1.075 1.075 0 0 0-.79-.326c-.308 0-.571.109-.789.326-.217.218-.325.48-.325.79 0 .308.108.572.325.789.218.217.48.326.79.326Zm2.096-5.5c-1.399 0-2.582-.484-3.549-1.451-.967-.967-1.451-2.15-1.451-3.549s.484-2.582 1.451-3.549c.967-.967 2.15-1.451 3.549-1.451s2.582.484 3.549 1.451c.967.967 1.451 2.15 1.451 3.549s-.484 2.582-1.451 3.549c-.967.967-2.15 1.451-3.549 1.451Zm0-1.5c.983 0 1.813-.338 2.488-1.012C19.663 10.313 20 9.483 20 8.5c0-.983-.337-1.813-1.012-2.487C18.313 5.338 17.483 5 16.5 5c-.983 0-1.813.338-2.488 1.013C13.337 6.688 13 7.517 13 8.5c0 .983.338 1.813 1.012 2.488.675.675 1.505 1.012 2.488 1.012Zm-9.384 5.615c-.995 0-1.846-.354-2.554-1.062C3.854 15.845 3.5 14.994 3.5 14s.354-1.845 1.062-2.553c.708-.708 1.56-1.062 2.553-1.062.995 0 1.846.354 2.554 1.062.708.708 1.062 1.559 1.062 2.553s-.354 1.845-1.062 2.553c-.708.708-1.56 1.062-2.554 1.062Zm0-1.5c.582 0 1.08-.207 1.494-.621.414-.414.62-.912.62-1.494s-.206-1.08-.62-1.494a2.038 2.038 0 0 0-1.495-.622c-.582 0-1.08.208-1.494.622A2.038 2.038 0 0 0 5 14c0 .582.207 1.08.622 1.494.414.414.912.622 1.494.622Z" fill="#1C1B1F"/></g></svg>