<svg width="24" height="24" viewBox="0 0 24 24" fill="none" xmlns="http://www.w3.org/2000/svg">
<mask id="mask0_3853_21814" style="mask-type:alpha" maskUnits="userSpaceOnUse" x="0" y="0" width="24" height="24">
<rect width="24" height="24" fill="#D9D9D9"/>
</mask>
<g mask="url(#mask0_3853_21814)">
<path d="M4.5 6.30762C4.71283 6.30762 4.89149 6.37994 5.03516 6.52344C5.17835 6.667 5.24997 6.84505 5.25 7.05762V19.1924C5.25004 19.2693 5.28255 19.3394 5.34668 19.4033C5.41064 19.4675 5.48067 19.5 5.55762 19.5H14.6924C14.9049 19.5 15.083 19.5717 15.2266 19.7148C15.3701 19.8585 15.4424 20.0372 15.4424 20.25C15.4424 20.4628 15.3701 20.6407 15.2266 20.7842C15.0829 20.9278 14.9051 21 14.6924 21H5.55762C5.05251 21 4.62536 20.8246 4.27539 20.4746C3.92542 20.1246 3.75003 19.6975 3.75 19.1924V7.05762C3.75003 6.84487 3.82222 6.66706 3.96582 6.52344C4.10932 6.37994 4.28717 6.30762 4.5 6.30762Z" fill="currentColor"/>
<path fill-rule="evenodd" clip-rule="evenodd" d="M17.4424 2.5C17.9475 2.50003 18.3746 2.67542 18.7246 3.02539C19.0746 3.37536 19.25 3.80251 19.25 4.30762V15.6924C19.25 16.1975 19.0746 16.6246 18.7246 16.9746C18.3746 17.3246 17.9475 17.5 17.4424 17.5H9.05762C8.55251 17.5 8.12536 17.3246 7.77539 16.9746C7.42542 16.6246 7.25003 16.1975 7.25 15.6924V4.30762C7.25003 3.80251 7.42542 3.37536 7.77539 3.02539C8.12536 2.67542 8.55251 2.50003 9.05762 2.5H17.4424ZM16.5879 6.95312C16.3834 6.95312 16.2063 7.02714 16.0576 7.17578L12.3496 10.8896L10.752 9.30078C10.6031 9.1522 10.4288 9.07657 10.2295 9.07324C10.0304 9.07015 9.85329 9.14583 9.69824 9.30078C9.54958 9.44945 9.47461 9.62655 9.47461 9.83105C9.47469 10.0354 9.54965 10.2118 9.69824 10.3604L11.6924 12.3799C11.8732 12.5606 12.0886 12.6514 12.3379 12.6514C12.5869 12.6513 12.8017 12.5605 12.9824 12.3799L17.1172 8.23535C17.2658 8.08677 17.3398 7.9104 17.3398 7.70605C17.3398 7.50155 17.2659 7.32445 17.1172 7.17578C16.9686 7.0273 16.7922 6.95322 16.5879 6.95312Z" fill="currentColor"/>
</g>
</svg>
