<svg xmlns="http://www.w3.org/2000/svg" viewBox="0 0 24 24">
<mask id="a" width="24" height="24" x="0" y="0" maskUnits="userSpaceOnUse" style="mask-type:alpha">
<path fill="currentcolor" d="M0 0h24v24H0z"/>
</mask><g mask="url(#a)">
<path fill="#DE93A0" fill-rule="evenodd" d="M11.037.012c3.24.162 5.82 2.423 7.775 5.012 1.878 2.485 3.078 5.482 2.46 8.536-.637 3.142-2.783 5.75-5.648 7.19-2.928 1.47-6.365 1.719-9.339.34-3.027-1.402-5.167-4.18-5.947-7.424-.792-3.293-.204-6.806 1.884-9.472C4.332 1.501 7.62-.159 11.037.012Z" clip-rule="evenodd" opacity=".4"/>
<path fill="currentcolor" d="m12 11.8-1.633 1.261c-.093.071-.185.074-.276.008-.09-.065-.119-.15-.085-.254l.621-2.042-1.654-1.265a.216.216 0 0 1-.07-.259c.037-.102.107-.153.21-.153h2.045l.62-2.011c.034-.104.108-.156.222-.156s.188.052.221.156l.621 2.011h2.03c.103 0 .176.051.217.153.042.102.021.188-.062.259l-1.67 1.265.622 2.042c.033.104.005.189-.086.254-.09.066-.182.063-.276-.008L12 11.8Zm0 8.68-4.32 1.368a.823.823 0 0 1-.81-.12A.866.866 0 0 1 6.5 21v-5.927a7.15 7.15 0 0 1-1.475-2.294A7.359 7.359 0 0 1 4.5 10c0-2.092.727-3.865 2.18-5.32C8.136 3.228 9.909 2.5 12 2.5s3.865.727 5.32 2.18C18.772 6.136 19.5 7.909 19.5 10c0 .985-.175 1.91-.525 2.779a7.15 7.15 0 0 1-1.475 2.294V21a.866.866 0 0 1-.37.728.823.823 0 0 1-.81.12L12 20.481ZM12 16c1.667 0 3.083-.583 4.25-1.75C17.417 13.083 18 11.667 18 10c0-1.667-.583-3.083-1.75-4.25C15.083 4.583 13.667 4 12 4c-1.667 0-3.083.583-4.25 1.75C6.583 6.917 6 8.333 6 10c0 1.667.583 3.083 1.75 4.25C8.917 15.417 10.333 16 12 16Zm-4 4.035 4-1.073 4 1.073v-3.716a7.354 7.354 0 0 1-1.873.87A7.224 7.224 0 0 1 12 17.5c-.74 0-1.449-.104-2.127-.311A7.355 7.355 0 0 1 8 16.319v3.716Z"/></g></svg>