<svg xmlns="http://www.w3.org/2000/svg" viewBox="0 0 24 24">
<mask id="a" width="24" height="24" x="0" y="0" maskUnits="userSpaceOnUse" style="mask-type:alpha">
<path fill="currentcolor" d="M0 0h24v24H0z"/>
</mask>
<g mask="url(#a)">
<path fill="#DE93A0" fill-rule="evenodd" d="M11.015.933c3.138.07 5.08 3.101 6.98 5.599 1.82 2.392 3.802 4.948 3.297 7.911-.531 3.124-2.994 5.476-5.82 6.91-2.91 1.478-6.394 2.286-9.277.755-2.79-1.481-3.752-4.82-4.255-7.94-.454-2.817.077-5.606 1.69-7.96C5.43 3.583 7.835.861 11.016.933Z" clip-rule="evenodd" opacity=".4"/>
<path fill="currentcolor" d="M4.308 20.5c-.505 0-.933-.175-1.283-.525a1.745 1.745 0 0 1-.525-1.283V8.308c0-.505.175-.933.525-1.283.35-.35.778-.525 1.283-.525H8.5V4.808c0-.505.175-.933.525-1.283.35-.35.778-.525 1.283-.525h3.384c.505 0 .933.175 1.283.525.35.35.525.778.525 1.283V6.5h4.192c.505 0 .933.175 1.283.525.35.35.525.778.525 1.283v10.384c0 .505-.175.933-.525 1.283-.35.35-.778.525-1.283.525H4.308ZM10 6.5h4V4.808a.294.294 0 0 0-.096-.212.294.294 0 0 0-.212-.096h-3.384a.294.294 0 0 0-.212.096.293.293 0 0 0-.096.212V6.5Zm10 8.25h-5.5v.846a.875.875 0 0 1-.259.645.875.875 0 0 1-.645.259h-3.192a.875.875 0 0 1-.645-.259.875.875 0 0 1-.259-.645v-.846H4v3.942c0 .077.032.148.096.212a.294.294 0 0 0 .212.096h15.384a.294.294 0 0 0 .212-.096.294.294 0 0 0 .096-.212V14.75ZM11 15h2v-2h-2v2Zm-7-1.75h5.5v-.846c0-.258.086-.473.259-.645a.876.876 0 0 1 .645-.259h3.192c.258 0 .473.086.645.259a.875.875 0 0 1 .259.645v.846H20V8.308a.294.294 0 0 0-.096-.212.294.294 0 0 0-.212-.096H4.308a.294.294 0 0 0-.212.096.294.294 0 0 0-.096.212v4.942Z"/></g></svg>