<svg xmlns="http://www.w3.org/2000/svg" viewBox="0 0 24 24">
<mask id="a" width="24" height="24" x="0" y="0" maskUnits="userSpaceOnUse" style="mask-type:alpha">
<path fill="currentcolor" d="M0 0h24v24H0z"/>
</mask>
<g mask="url(#a)">
<path fill="currentcolor" d="M4.25 17.635a.725.725 0 0 1-.534-.216.726.726 0 0 1-.216-.535c0-.212.072-.39.216-.534a.726.726 0 0 1 .534-.215h15.5c.212 0 .39.072.534.215a.726.726 0 0 1 .216.535c0 .213-.072.39-.216.534a.726.726 0 0 1-.534.216H4.25Zm0-4.885a.725.725 0 0 1-.534-.216A.726.726 0 0 1 3.5 12c0-.213.072-.39.216-.534a.726.726 0 0 1 .534-.216h15.5c.212 0 .39.072.534.216a.726.726 0 0 1 .216.535c0 .212-.072.39-.216.534a.726.726 0 0 1-.534.215H4.25Zm0-4.885a.725.725 0 0 1-.534-.215.726.726 0 0 1-.216-.535c0-.212.072-.39.216-.534a.726.726 0 0 1 .534-.215h15.5c.212 0 .39.072.534.215a.725.725 0 0 1 .216.535c0 .212-.072.39-.216.534a.726.726 0 0 1-.534.215H4.25Z"/>
</g>
</svg>