<svg fill="none" xmlns="http://www.w3.org/2000/svg" viewBox="0 0 24 24"><mask id="a" style="mask-type:alpha" maskUnits="userSpaceOnUse" x="0" y="0" width="24" height="24"><path fill="#D9D9D9" d="M0 0h24v24H0z"/></mask><g mask="url(#a)"><path opacity=".4" fill-rule="evenodd" clip-rule="evenodd" d="M12.117 1.107c3.555-.065 7.554-.28 9.842 2.443 2.33 2.772 1.675 6.763.856 10.29-.813 3.507-1.975 7.384-5.285 8.8-3.213 1.373-6.566-.8-9.668-2.405-2.937-1.52-6.065-3.1-7.058-6.254C-.276 10.55.347 6.607 2.72 3.906c2.27-2.583 5.958-2.735 9.396-2.799Z" fill="#DE93A0"/><path d="m10.773 12.054-2.594 7.161a.54.54 0 0 1-.125.166l-.56.534c-.118.112-.247.14-.387.084a.38.38 0 0 1-.251-.297l-.09-.748a.819.819 0 0 1 .024-.216l2.675-7.384c.192.176.398.32.616.434.218.113.448.202.692.266ZM12 10.75a2.651 2.651 0 0 1-1.947-.803A2.65 2.65 0 0 1 9.25 8c0-.65.195-1.212.586-1.684.391-.474.862-.781 1.414-.924V3.75c0-.213.072-.391.215-.534A.725.725 0 0 1 12 3c.213 0 .39.072.534.216a.725.725 0 0 1 .216.534v1.642c.551.143 1.022.45 1.413.923.391.473.587 1.035.587 1.685a2.65 2.65 0 0 1-.803 1.947A2.65 2.65 0 0 1 12 10.75Zm0-1.5c.347 0 .643-.121.885-.364.243-.243.365-.538.365-.886s-.122-.643-.365-.886A1.205 1.205 0 0 0 12 6.75c-.348 0-.643.122-.886.364A1.205 1.205 0 0 0 10.75 8c0 .348.121.643.364.886s.538.364.886.364Zm1.227 2.804c.243-.064.474-.153.692-.267.218-.113.42-.258.606-.433l2.675 7.384c.01.031.018.103.025.216l-.09.748a.38.38 0 0 1-.251.297c-.14.056-.27.028-.388-.084l-.56-.534-.125-.166-2.584-7.161Z" fill="#1C1B1F"/></g></svg>